# xmcd CD database file
#
# Track frame offsets:
#	150
#	11270
#	24064
#	35243
#	46750
#	58993
#	73353
#	85888
#	99621
#	113907
#	126995
#	140146
#	154165
#	165823
#	184123
#	213964
#	224957
#	236710
#	248970
#	263328
#
# Disc length: 3706 seconds
#
# Revision: 3
# Processed by: cddbd v1.5.2PL0 Copyright (c) Steve Scherf et al.
# Submitted via: CDex 1.51
#
DISCID=220e7814
DTITLE=Sonny Rollins - Mambo Bounce  {1949-1951}
DYEAR=2002
DGENRE=Jazz
TTITLE0=Professor Bop
TTITLE1=Audubon 
TTITLE2=Goof Square 
TTITLE3=Bee Jay 
TTITLE4=St. Louis Blues
TTITLE5=Elysee
TTITLE6=Hilo
TTITLE7=Bouncing With Bud
TTITLE8=Wail
TTITLE9=52nd Street Theme
TTITLE10=Down
TTITLE11=Whispering
TTITLE12=I Know
TTITLE13=Conception
TTITLE14=My Old Flame 
TTITLE15=Mambo Bounce
TTITLE16=Shadrack
TTITLE17=On A Slow Boat to China
TTITLE18=With A Song In My Heart
TTITLE19=Newk's Fadeaway
EXTD=Compilation of performances with various bands 1949 - 1951 YEAR: 2002
EXTT0=
EXTT1=
EXTT2=
EXTT3=
EXTT4=
EXTT5=
EXTT6=
EXTT7=
EXTT8=
EXTT9=
EXTT10=
EXTT11=
EXTT12=
EXTT13=
EXTT14=
EXTT15=
EXTT16=
EXTT17=
EXTT18=
EXTT19=
PLAYORDER=
